<svg width="40px" height="69px" viewBox="0 0 40 69" version="1.1" xmlns="http://www.w3.org/2000/svg" xmlns:xlink="http://www.w3.org/1999/xlink">
    <g id="Page-1" stroke="none" stroke-width="1" fill="none" fill-rule="evenodd">
        <g id="Desktop-HD" transform="translate(-631.000000, -843.000000)" fill="#212B35">
            <path class="path" d="M634.5,873.718911 L653.5,873.718911 C655.432997,873.718911 657,875.285914 657,877.218911 C657,879.151908 655.432997,880.718911 653.5,880.718911 L634.5,880.718911 C632.567003,880.718911 631,879.151908 631,877.218911 C631,875.285914 632.567003,873.718911 634.5,873.718911 Z M648.325318,843.968911 L667.377876,854.968911 C669.051901,855.935409 669.625464,858.075976 668.658965,859.75 C667.692467,861.424024 665.551901,861.997587 663.877876,861.031089 L644.825318,850.031089 C643.151293,849.064591 642.57773,846.924024 643.544229,845.25 C644.510727,843.575976 646.651293,843.002413 648.325318,843.968911 Z M649.474874,905.750134 L665.031223,890.193785 C666.398058,888.82695 668.614135,888.82695 669.98097,890.193785 C671.347805,891.56062 671.347805,893.776697 669.98097,895.143532 L654.424621,910.699881 C653.057786,912.066716 650.841709,912.066716 649.474874,910.699881 C648.108039,909.333046 648.108039,907.116969 649.474874,905.750134 Z" id="Combined-Shape"></path>
        </g>
    </g>
</svg>