<svg width="45px" height="69px" viewBox="0 0 45 69" version="1.1" xmlns="http://www.w3.org/2000/svg" xmlns:xlink="http://www.w3.org/1999/xlink">
    <g id="Page-1" stroke="none" stroke-width="1" fill="none" fill-rule="evenodd">
        <g id="Desktop-HD" transform="translate(-895.000000, -844.000000)" fill="#212B35">
            <path d="M936.5,882.281089 L916.5,882.281089 C914.567003,882.281089 913,880.714086 913,878.781089 C913,876.848092 914.567003,875.281089 916.5,875.281089 L936.5,875.281089 C938.432997,875.281089 940,876.848092 940,878.781089 C940,880.714086 938.432997,882.281089 936.5,882.281089 Z M917.674682,912.031089 L898.622124,901.031089 C896.948099,900.064591 896.374536,897.924024 897.341035,896.25 C898.307533,894.575976 900.448099,894.002413 902.122124,894.968911 L921.174682,905.968911 C922.848707,906.935409 923.42227,909.075976 922.455771,910.75 C921.489273,912.424024 919.348707,912.997587 917.674682,912.031089 Z M916.525126,850.249866 L900.968777,865.806215 C899.601942,867.17305 897.385865,867.17305 896.01903,865.806215 C894.652195,864.43938 894.652195,862.223303 896.01903,860.856468 L911.575379,845.300119 C912.942214,843.933284 915.158291,843.933284 916.525126,845.300119 C917.891961,846.666954 917.891961,848.883031 916.525126,850.249866 Z" id="Combined-Shape"></path>
        </g>
    </g>
</svg>